<svg viewBox="0 0 40 40" fill="none" xmlns="http://www.w3.org/2000/svg">
<path d="M0 19.7956C0 19.0903 0.598367 18.5306 1.21839 18.1944C1.61686 17.9475 1.9387 17.6389 2.18391 17.2685C2.45977 16.8673 2.659 16.4352 2.78161 15.9722C2.93487 15.4784 3.0115 14.9846 3.0115 14.4907V7.03704C3.0115 5.89506 3.11877 4.89198 3.33333 4.02778C3.57854 3.16358 3.97701 2.43827 4.52874 1.85185C5.08046 1.23457 5.81609 0.771607 6.73563 0.462965C7.68583 0.154322 8.8659 0 10.2759 0H12.2284C13.0069 0 13.452 0.831667 12.9244 1.40414C12.2018 2.18842 11.1844 3.00926 10.092 3.00926C8.00021 3.00926 7.88506 3.30247 7.33333 3.88889C6.81226 4.47531 6.55173 5.54013 6.55173 7.08334V13.4722C6.55173 15.5401 6.24521 17.0679 5.63218 18.0556C5.01916 19.0123 4.31418 19.6605 3.51724 20C4.31418 20.3704 5.01916 21.0648 5.63218 22.0833C6.24521 23.1019 6.55173 24.5833 6.55173 26.5278V32.9167C6.55173 34.4599 6.82759 35.5247 7.37931 36.1111C7.93103 36.6975 8.00021 37 10.1379 36.9907C11.2645 36.9859 12.2763 37.8219 12.9814 38.6139C13.4919 39.1873 13.0448 40 12.2771 40H10.2759C8.8659 40 7.68583 39.8457 6.73563 39.537C5.81609 39.2284 5.08046 38.7654 4.52874 38.1481C3.97701 37.5617 3.57854 36.8364 3.33333 35.9722C3.11877 35.108 3.0115 34.1049 3.0115 32.963V25.5093C3.0115 25.0463 2.93487 24.5833 2.78161 24.1204C2.659 23.6265 2.45977 23.1944 2.18391 22.8241C1.9387 22.4228 1.61686 22.0988 1.21839 21.8519C0.624282 21.453 0 20.9014 0 20.1858V19.7956Z" fill="currentColor"/>
<path d="M40 19.7956C40 19.0903 39.4016 18.5306 38.7816 18.1944C38.3831 17.9475 38.0613 17.6389 37.8161 17.2685C37.5402 16.8673 37.341 16.4352 37.2184 15.9722C37.0651 15.4784 36.9885 14.9846 36.9885 14.4907V7.03704C36.9885 5.89506 36.8812 4.89198 36.6667 4.02778C36.4215 3.16358 36.023 2.43827 35.4713 1.85185C34.9195 1.23457 34.1839 0.771607 33.2644 0.462965C32.3142 0.154322 31.1341 0 29.7241 0H27.7716C26.9931 0 26.548 0.831667 27.0756 1.40414C27.7982 2.18842 28.8156 3.00926 29.908 3.00926C31.9998 3.00926 32.1149 3.30247 32.6667 3.88889C33.1877 4.47531 33.4483 5.54013 33.4483 7.08334V13.4722C33.4483 15.5401 33.7548 17.0679 34.3678 18.0556C34.9808 19.0123 35.6858 19.6605 36.4828 20C35.6858 20.3704 34.9808 21.0648 34.3678 22.0833C33.7548 23.1019 33.4483 24.5833 33.4483 26.5278V32.9167C33.4483 34.4599 33.1724 35.5247 32.6207 36.1111C32.069 36.6975 31.9998 37 29.8621 36.9907C28.7355 36.9859 27.7237 37.8219 27.0186 38.6139C26.5081 39.1873 26.9552 40 27.7229 40H29.7241C31.1341 40 32.3142 39.8457 33.2644 39.537C34.1839 39.2284 34.9195 38.7654 35.4713 38.1481C36.023 37.5617 36.4215 36.8364 36.6667 35.9722C36.8812 35.108 36.9885 34.1049 36.9885 32.963V25.5093C36.9885 25.0463 37.0651 24.5833 37.2184 24.1204C37.341 23.6265 37.5402 23.1944 37.8161 22.8241C38.0613 22.4228 38.3831 22.0988 38.7816 21.8519C39.3757 21.453 40 20.9014 40 20.1858V19.7956Z" fill="currentColor"/>
<path d="M22 30C22 31.1046 21.1046 32 20 32C18.8954 32 18 31.1046 18 30C18 28.8954 18.8954 28 20 28C21.1046 28 22 28.8954 22 30Z" fill="currentColor"/>
<path d="M28 30C28 31.1046 27.1046 32 26 32C24.8954 32 24 31.1046 24 30C24 28.8954 24.8954 28 26 28C27.1046 28 28 28.8954 28 30Z" fill="currentColor"/>
<path d="M16 30C16 31.1046 15.1046 32 14 32C12.8954 32 12 31.1046 12 30C12 28.8954 12.8954 28 14 28C15.1046 28 16 28.8954 16 30Z" fill="currentColor"/>
</svg>
